<svg id="Layer_1" data-name="Layer 1" xmlns="http://www.w3.org/2000/svg" viewBox="0 0 800 800"><defs><style>.cls-1{fill:#fff;}.cls-2{fill:#c1272d;stroke:#fff;stroke-miterlimit:10;stroke-width:8px;}</style></defs><title>Artboard 1</title><rect x="7" y="7" width="786" height="786"/><path class="cls-1" d="M786,14V786H14V14H786M800,0H0V800H800V0Z"/><path class="cls-1" d="M84,778V22h22c202,636.87,218.86,687,231.53,729.28h.85c-2.54-82.39-1.69-218.23-1.69-340.7V22h15.21V778H330.71C124.53,132.23,110.17,83.24,97.49,43.15h-.84c2.53,94.64,2.53,212.66,2.53,351.84V778Z"/><path class="cls-1" d="M473.51,22H576.6C667.86,22,700,104.39,700,192.35c0,122.48-39.71,159.22-75.2,172.58,38,13.36,91.26,59,91.26,188.16C716,673.34,683.07,778,573.22,778H473.51Zm101.4,335.13c82.81,0,109.85-61.23,109.85-163.67,0-84.61-30.42-152.53-110.69-152.53H488.72v316.2ZM488.72,759.07h85.35c84.5,0,126.75-72.37,126.75-204.86S645.05,376.06,574.91,376.06H488.72Z"/><path class="cls-2" d="M407.05,768q-19.19,5.53-41.56-5.07t-41.23-35.39Q305.4,702.7,295.5,668.35a147.7,147.7,0,0,1,2.3-91q15.52-45.17,56.34-96.47-9.21-21.77-11.89-31.07a207.22,207.22,0,0,1-8.12-71.29q2.31-35.16,14.23-62.82t29-45.57q17.08-17.91,35.73-23.29,21.61-6.24,38.83,3.72t23.51,31.79q8.35,29,3.75,55.11a166.35,166.35,0,0,1-16.83,49.23,536.08,536.08,0,0,1-31.59,51.36q-19.36,28.25-23.22,35.18A600.23,600.23,0,0,0,460.38,558q18-28.83,26.81-50.16t14-38.73q5.24-17.4,8.47-18.33c1.63-.47,3.73,1.77,6.33,6.7a89.25,89.25,0,0,1,6.57,16.71,144.68,144.68,0,0,1,5.92,42.86,202.64,202.64,0,0,1-5.74,43.51,418.07,418.07,0,0,1-15.3,49l25.27,20.62a89.29,89.29,0,0,0,3.57-9.94,58,58,0,0,1,3.29-8.9,5.79,5.79,0,0,1,3.48-3.13,4.79,4.79,0,0,1,5,1.65,14.32,14.32,0,0,1,3.34,6q4.23,14.68-1.48,53.72t-16,42q-5.41,1.56-12.24-2.86t-17.9-15.38q-11.07-11-18.24-18.58-22,40.46-41.33,64.24T407.05,768ZM376.57,525.21a280.8,280.8,0,0,0-24.18,49.61,240.63,240.63,0,0,0-12.78,48.06q-3.33,22.47.49,35.7,7.63,26.49,25.74,21.26,13.25-3.81,32.59-22t35.65-46.91Q411.66,577.88,376.57,525.21Zm5.64-117.51,4.23,14.67q30.56-40.2,42.75-78.6t6.73-57.36q-4.65-16.1-16.8-12.59Q408,277,396,299.27t-16.73,52.11Q374.57,381.23,382.21,407.7Z"/></svg>